<svg width="200" height="200" viewBox="0 0 200 200" fill="none" xmlns="http://www.w3.org/2000/svg">
<rect width="200" height="200" fill="white"/>
<g clip-path="url(#clip0_33_46)">
<path d="M27.005 73.9809C27.005 73.7461 26.8452 73.5874 26.6088 73.5874C26.3724 73.5874 26.2126 73.7461 26.2126 73.9809C26.2126 74.1396 26.449 74.2919 26.6088 74.2919C26.8452 74.2919 27.005 74.1332 27.005 73.9809ZM55.2125 74.0571C55.2125 73.7461 54.893 73.5049 54.6565 73.5049C54.337 73.5049 54.1005 73.7397 54.1005 74.0571C54.1005 74.3744 54.337 74.6092 54.6565 74.6092C54.976 74.6092 55.2125 74.2983 55.2125 74.0571ZM34.7438 69.8173C34.7438 69.6587 34.5841 69.5 34.4307 69.5C34.2773 69.5 34.1176 69.6587 34.1176 69.8935C34.1176 70.0522 34.2773 70.2109 34.4307 70.2109C34.5841 70.2109 34.7438 70.0522 34.7438 69.8173ZM36.8783 70.5219C36.8783 70.2045 36.5587 69.8935 36.2456 69.9697C35.9325 69.9697 35.6129 70.2045 35.6129 70.5219C35.6129 70.9154 35.9261 71.1502 36.2456 71.1502C36.5651 71.1502 36.8783 70.9154 36.8783 70.5219ZM30.3983 70.598C30.3983 70.3632 30.1619 70.1283 29.9254 70.1283C29.6123 70.1283 29.3695 70.3632 29.3695 70.6805C29.3695 70.9154 29.6059 71.1502 29.9254 71.1502C30.1619 71.1502 30.3983 70.9154 30.3983 70.598ZM27.6313 71.8547C27.6313 71.6199 27.3948 71.4612 27.1584 71.4612C26.9219 71.4612 26.6855 71.6199 26.6855 71.8547C26.6855 72.1657 26.9219 72.3244 27.1584 72.3244C27.3948 72.3244 27.6313 72.0895 27.6313 71.8547ZM28.1042 74.6029C28.1042 74.9139 28.3406 75.1551 28.6601 75.1551C28.9797 75.1551 29.2161 74.9202 29.2161 74.6029C29.2161 74.2856 28.9797 74.0507 28.6601 74.0507C28.3406 74.0507 28.1042 74.2856 28.1042 74.6029ZM29.7657 75.3074C29.7657 75.7009 30.0788 76.0119 30.475 76.0119C30.8712 76.0119 31.1844 75.6946 31.1844 75.3074C31.1844 74.9202 30.8712 74.6029 30.475 74.6029C30.0788 74.6029 29.7657 74.9139 29.7657 75.3074ZM31.5806 77.6621C31.5806 77.8208 31.7403 77.9795 31.9768 77.9795C32.1365 77.9795 32.2963 77.8208 32.2963 77.6621C32.2963 77.4273 32.1365 77.2686 31.9768 77.2686C31.7403 77.2686 31.5806 77.4273 31.5806 77.6621ZM33.0823 79.7058C32.7692 79.7058 32.5264 80.0168 32.5264 80.3341C32.5264 80.6515 32.7628 80.8863 33.0823 80.8863C33.4019 80.8863 33.715 80.5753 33.715 80.258C33.715 79.9406 33.4019 79.7058 33.0823 79.7058ZM32.5264 82.6888C32.8395 82.6888 33.0823 82.454 33.0823 82.1367C33.0823 81.7432 32.8459 81.5083 32.5264 81.5083C32.1301 81.5083 31.8937 81.7432 31.8937 82.1367C31.8937 82.4477 32.1301 82.6888 32.5264 82.6888ZM29.8424 83.863C30.0788 83.863 30.2386 83.7043 30.2386 83.552C30.2386 83.3172 30.0021 83.1585 29.8424 83.1585C29.6059 83.1585 29.4462 83.3172 29.4462 83.552C29.4462 83.7107 29.6826 83.863 29.8424 83.863ZM29.2864 85.9004C29.6826 85.9004 29.9957 85.5894 29.9957 85.272C29.9957 84.8785 29.6826 84.6437 29.2864 84.6437C28.8902 84.6437 28.6537 84.9547 28.6537 85.272C28.6537 85.5894 28.9669 85.9004 29.2864 85.9004ZM26.6024 86.7636C26.6024 86.9984 26.7622 87.1571 26.9155 87.1571C27.0689 87.1571 27.2287 86.9984 27.2287 86.7636C27.2287 86.6049 27.0689 86.4526 26.9155 86.4526C26.7622 86.4526 26.6024 86.6112 26.6024 86.7636ZM57.8134 102.929C57.8134 103.24 58.0498 103.557 58.3694 103.557C58.7656 103.557 59.002 103.246 59.002 102.929C59.002 102.612 58.6889 102.377 58.3694 102.377C58.0498 102.377 57.8134 102.612 57.8134 102.929ZM59.7114 103.716C59.7114 104.027 59.9478 104.268 60.2673 104.268C60.5869 104.268 60.9 104.033 60.9 103.716C60.9 103.399 60.5869 103.088 60.2673 103.088C59.9478 103.164 59.7114 103.399 59.7114 103.716ZM62.3187 102.383C62.3187 102.694 62.6318 102.935 62.9513 102.935C63.2708 102.935 63.5073 102.701 63.5073 102.383C63.5073 102.066 63.2708 101.755 62.9513 101.831C62.6382 101.831 62.3187 102.066 62.3187 102.383ZM71.0864 94.3798C71.0864 94.6908 71.3228 95.0082 71.6423 95.0082C71.9619 94.932 72.275 94.6972 72.1983 94.3798C72.1983 94.0625 71.9619 93.8276 71.6423 93.8276C71.3228 93.8276 71.0864 94.0625 71.0864 94.3798ZM73.7704 93.047C73.7704 93.3643 74.0835 93.6753 74.403 93.6753C74.7225 93.6753 75.0357 93.3643 75.0357 93.047C75.0357 92.6535 74.7162 92.4186 74.403 92.4186C74.0899 92.4186 73.7704 92.7296 73.7704 93.047ZM67.9998 97.5977C68.0765 97.915 68.3129 98.1499 68.6324 98.1499C68.952 98.1499 69.1884 97.915 69.1884 97.5977C69.1884 97.2804 68.952 96.9694 68.6324 96.9694C68.3129 96.9694 67.9998 97.2804 67.9998 97.5977ZM64.8365 100.892C64.8365 101.209 65.0729 101.444 65.3925 101.444C65.712 101.444 65.9484 101.209 65.9484 100.892C65.9484 100.574 65.712 100.346 65.3925 100.346C65.0729 100.346 64.8365 100.581 64.8365 100.892ZM55.826 95.8713C55.826 96.1062 56.0624 96.341 56.2989 96.341C56.5353 96.341 56.7718 96.1062 56.7718 95.8713C56.7718 95.6365 56.5353 95.4017 56.2989 95.4017C56.0624 95.4017 55.826 95.6365 55.826 95.8713ZM48.4003 97.9912C48.4003 98.3847 48.7198 98.7782 49.1927 98.6957C49.5889 98.6957 49.902 98.3847 49.902 97.9912C49.902 97.5977 49.5889 97.2867 49.1096 97.2867C48.7134 97.2867 48.4003 97.5977 48.4003 97.9912ZM45.7163 99.4827C45.7163 99.8001 45.9527 100.029 46.2722 100.029C46.6684 100.029 46.9049 99.7937 46.9049 99.4827C46.9049 99.0892 46.5918 98.8544 46.2722 98.8544C45.9527 98.8544 45.7163 99.1654 45.7163 99.4827ZM26.8325 88.7311C26.8325 88.4201 26.596 88.1789 26.2829 88.1789C25.9698 88.1789 25.7269 88.4137 25.7269 88.7311C25.7269 89.0484 25.9634 89.2833 26.2829 89.2833C26.6024 89.2833 26.8325 89.0484 26.8325 88.7311ZM26.2829 90.6923C26.2829 90.2988 25.9698 89.9878 25.5735 89.9878C25.1773 89.9878 24.8642 90.3051 24.8642 90.6923C24.8642 91.0794 25.1773 91.3968 25.5735 91.3968C25.9698 91.3968 26.2829 91.0858 26.2829 90.6923ZM25.81 92.736C25.81 92.3425 25.4138 91.949 25.0176 91.949C24.6214 91.949 24.2252 92.3425 24.2252 92.736C24.2252 93.2056 24.6214 93.523 25.0176 93.523C25.4905 93.523 25.81 93.1295 25.81 92.736ZM23.6756 94.621C23.6756 95.0145 23.9887 95.3255 24.468 95.3255C24.8642 95.3255 25.2604 95.0082 25.2604 94.5385C25.1837 94.145 24.8642 93.834 24.468 93.834C23.9951 93.834 23.6756 94.145 23.6756 94.621ZM23.8353 97.2105C24.2315 97.2105 24.5447 96.9757 24.5447 96.5822C24.5447 96.1887 24.2315 95.8777 23.8353 95.9539C23.4391 95.9539 23.2027 96.1887 23.2027 96.5822C23.2027 96.9757 23.5158 97.2105 23.8353 97.2105ZM23.2858 99.1717C23.682 99.1717 23.9184 98.8607 23.9184 98.5434C23.9184 98.1499 23.6053 97.8389 23.2858 97.8389C22.8896 97.8389 22.5764 98.1499 22.5764 98.5434C22.5764 98.8607 22.8896 99.1717 23.2858 99.1717ZM22.5764 101.057C22.8896 101.057 23.1324 100.822 23.1324 100.505C23.1324 100.187 22.8959 99.9587 22.5764 99.9587C22.2569 99.9587 22.0204 100.194 22.0204 100.505C22.0204 100.816 22.2569 101.057 22.5764 101.057ZM21.9438 101.844C21.7073 101.844 21.4709 102.079 21.4709 102.396C21.4709 102.631 21.7073 102.866 21.9438 102.866C22.2633 102.866 22.4997 102.631 22.4997 102.396C22.4997 102.079 22.2633 101.844 21.9438 101.844ZM21.4709 103.805C21.1513 103.805 20.998 104.04 20.998 104.275C20.998 104.586 21.1577 104.744 21.4709 104.744C21.7073 104.744 21.9438 104.586 21.9438 104.275C21.9438 104.04 21.7073 103.805 21.4709 103.805ZM21.3942 106.16C21.3942 105.925 21.1577 105.69 20.8382 105.69C20.6018 105.69 20.3653 105.925 20.3653 106.242C20.3653 106.477 20.6018 106.712 20.9213 106.712C21.1577 106.712 21.3942 106.477 21.3942 106.16ZM19.8157 108.197C19.8157 108.432 19.9755 108.591 20.2119 108.591C20.4484 108.591 20.6082 108.432 20.6082 108.197C20.6082 107.962 20.4484 107.804 20.2119 107.804C19.9755 107.804 19.8157 107.962 19.8157 108.197ZM19.2598 110.082C19.2598 110.317 19.4195 110.476 19.656 110.476C19.8157 110.476 19.9755 110.317 19.9755 110.082C19.9755 109.923 19.8157 109.689 19.5793 109.689C19.4195 109.765 19.2598 109.923 19.2598 110.082ZM18.6271 112.043C18.6271 112.278 18.8636 112.513 19.1 112.513C19.3365 112.513 19.4962 112.278 19.4962 112.043C19.4962 111.808 19.3365 111.65 19.1 111.65C18.8636 111.65 18.6271 111.808 18.6271 112.043ZM18.0711 113.928C18.0711 114.163 18.2309 114.322 18.4674 114.322C18.6271 114.322 18.8636 114.163 18.8636 113.928C18.8636 113.693 18.6271 113.535 18.4674 113.535C18.2309 113.535 18.0711 113.693 18.0711 113.928ZM17.6749 115.889C17.6749 115.966 17.7516 116.048 17.8347 116.048C17.9178 116.048 17.9945 115.972 17.9945 115.889C17.9945 115.731 17.9178 115.655 17.8347 115.655C17.7516 115.655 17.6749 115.731 17.6749 115.889ZM24.0782 90.229C24.0782 90.0703 24.0015 89.918 23.8417 89.918C23.682 89.918 23.5286 90.0766 23.5286 90.229C23.5286 90.3813 23.6884 90.4638 23.8417 90.4638C23.9951 90.4638 24.0782 90.3876 24.0782 90.229ZM23.5222 91.9553C23.5222 91.7205 23.3624 91.5618 23.126 91.5618C22.8896 91.5618 22.6531 91.7205 22.6531 92.0315C22.6531 92.2663 22.8896 92.425 23.126 92.425C23.3624 92.425 23.5222 92.2663 23.5222 91.9553ZM23.2091 93.9165C23.1324 93.6055 22.8959 93.3643 22.5764 93.3643C22.1802 93.3643 21.9438 93.5992 21.9438 93.9927C21.9438 94.3037 22.2633 94.5448 22.5764 94.5448C22.8896 94.5448 23.2091 94.31 23.2091 93.9165ZM22.4997 95.9602C22.4997 95.6492 22.1866 95.3319 21.8671 95.3319C21.5476 95.3319 21.2344 95.6492 21.3111 95.9602C21.3111 96.2712 21.5476 96.5885 21.8671 96.5885C22.2633 96.5885 22.4997 96.2775 22.4997 95.9602ZM21.8671 97.9214C21.8671 97.604 21.6306 97.3692 21.3111 97.3692C20.9916 97.3692 20.7551 97.604 20.7551 97.9214C20.7551 98.2387 21.0683 98.4736 21.3111 98.4736C21.6242 98.4736 21.8671 98.2387 21.8671 97.9214ZM21.3111 99.7239C21.3111 99.4129 21.0747 99.1781 20.7551 99.1781C20.4356 99.1781 20.1992 99.4129 20.1992 99.7239C20.1992 100.035 20.4356 100.276 20.7551 100.276C21.0747 100.276 21.3111 100.041 21.3111 99.7239ZM20.1289 101.139C19.8924 101.139 19.5729 101.374 19.5729 101.691C19.5729 102.009 19.886 102.244 20.2056 102.244C20.442 102.244 20.7615 101.933 20.7615 101.691C20.6848 101.38 20.442 101.139 20.1289 101.139ZM19.4962 103.183C19.2598 103.183 19.0233 103.418 19.0233 103.735C19.0233 103.97 19.2598 104.205 19.5793 104.205C19.8157 104.205 20.0522 103.97 20.0522 103.735C20.0522 103.418 19.8157 103.183 19.4962 103.183ZM18.9402 106.007C19.1767 106.007 19.3365 105.849 19.3365 105.614C19.3365 105.379 19.1767 105.22 18.9402 105.22C18.7038 105.22 18.544 105.379 18.544 105.614C18.544 105.849 18.7038 106.007 18.9402 106.007ZM18.8636 107.499C18.8636 107.34 18.6271 107.105 18.4674 107.182C18.2309 107.182 18.0711 107.34 18.0711 107.499C18.0711 107.734 18.2309 107.892 18.4674 107.892C18.6271 107.892 18.8636 107.734 18.8636 107.499ZM17.3618 109.46C17.3618 109.619 17.5216 109.695 17.6813 109.695C17.8411 109.695 17.9945 109.619 17.9945 109.46C17.9945 109.225 17.8347 109.149 17.6813 109.149C17.528 109.149 17.3618 109.225 17.3618 109.46ZM16.8889 111.345C16.8889 111.504 16.9656 111.58 17.1254 111.58C17.202 111.58 17.2851 111.504 17.2851 111.345C17.2851 111.269 17.2084 111.11 17.1254 111.11C16.9656 111.11 16.8889 111.269 16.8889 111.345ZM16.2563 113.465C16.2563 113.541 16.3329 113.7 16.4927 113.7C16.6525 113.7 16.7291 113.541 16.7291 113.465C16.7291 113.306 16.6525 113.148 16.4927 113.148C16.3329 113.148 16.2563 113.306 16.2563 113.465ZM15.7003 115.35C15.7003 115.509 15.777 115.585 15.9367 115.585C16.0965 115.585 16.1732 115.509 16.1732 115.35C16.1732 115.191 16.0134 115.115 15.9367 115.115C15.777 115.115 15.7003 115.274 15.7003 115.35ZM20.6785 93.5293C20.6785 93.4532 20.6018 93.3707 20.442 93.3707C20.2822 93.3707 20.2056 93.4468 20.2056 93.5293C20.2056 93.688 20.3653 93.7642 20.442 93.7642C20.6018 93.7642 20.6785 93.688 20.6785 93.5293ZM20.1225 95.2557C20.1225 95.097 19.9627 95.0209 19.886 95.0209C19.7263 95.0209 19.5729 95.1034 19.5729 95.2557C19.5729 95.408 19.7327 95.5667 19.886 95.5667C19.9627 95.5667 20.1225 95.408 20.1225 95.2557ZM19.6496 97.293C19.6496 97.1344 19.4898 96.9821 19.2534 96.9821C19.0936 96.9821 18.9402 97.1407 18.9402 97.293C18.9402 97.5279 19.1 97.604 19.3365 97.604C19.4962 97.604 19.6496 97.4454 19.6496 97.293ZM19.0169 99.2542C19.0169 99.0956 18.8572 98.9369 18.7038 98.9369C18.4674 98.9369 18.3076 99.0956 18.3076 99.2542C18.3843 99.4891 18.4674 99.6477 18.7038 99.5652C18.8636 99.5652 19.0169 99.4891 19.0169 99.2542ZM18.2245 100.822C17.9881 100.822 17.8283 100.981 17.8283 101.133C17.8283 101.368 17.9881 101.526 18.2245 101.526C18.3843 101.526 18.5377 101.368 18.5377 101.133C18.5377 100.974 18.3779 100.822 18.2245 100.822ZM17.1957 103.1C17.1957 103.259 17.3554 103.411 17.5919 103.411C17.8283 103.411 17.9881 103.253 17.9881 103.1C17.9881 102.866 17.7516 102.707 17.5919 102.707C17.3554 102.707 17.1957 102.866 17.1957 103.1ZM17.3554 104.985C17.3554 104.751 17.1957 104.592 16.9592 104.592C16.7228 104.592 16.563 104.827 16.563 104.985C16.563 105.22 16.7994 105.379 16.9592 105.379C17.1957 105.379 17.3554 105.22 17.3554 104.985ZM16.0134 106.947C16.0134 107.182 16.1732 107.34 16.4096 107.34C16.6461 107.34 16.8058 107.182 16.8058 106.947C16.8058 106.712 16.5694 106.553 16.4096 106.553C16.1732 106.553 15.9367 106.712 16.0134 106.947ZM15.4575 108.908C15.5341 109.067 15.6172 109.219 15.7706 109.219C15.924 109.219 16.0837 109.06 16.0837 108.908C16.0837 108.756 15.924 108.673 15.7706 108.673C15.6172 108.673 15.4575 108.749 15.4575 108.908ZM14.9015 110.869C14.9015 111.028 14.9782 111.104 15.1379 111.104C15.2977 111.104 15.3744 111.028 15.3744 110.869C15.3744 110.71 15.2977 110.634 15.1379 110.634C14.9782 110.634 14.9015 110.71 14.9015 110.869ZM14.3455 112.754C14.3455 112.83 14.4222 112.913 14.5053 112.913C14.5883 112.913 14.665 112.837 14.665 112.754C14.665 112.672 14.5883 112.595 14.5053 112.595C14.4222 112.595 14.3455 112.672 14.3455 112.754ZM13.7129 114.791C13.7129 114.868 13.8726 115.026 13.9493 115.026C14.1091 115.026 14.1857 114.868 14.1857 114.791C14.1857 114.633 14.1091 114.557 13.9493 114.557C13.7895 114.557 13.7129 114.639 13.7129 114.791ZM15.8473 102.631C15.8473 102.472 15.6875 102.396 15.6108 102.396C15.5341 102.396 15.4511 102.472 15.4511 102.631C15.4511 102.707 15.5277 102.789 15.6108 102.789C15.6939 102.789 15.8473 102.713 15.8473 102.631ZM16.3202 100.746C16.3202 100.67 16.2435 100.587 16.1604 100.587C16.0006 100.587 15.924 100.663 15.924 100.746C15.924 100.904 16.0006 100.981 16.1604 100.981C16.2371 100.981 16.3202 100.904 16.3202 100.746ZM15.2146 104.509C15.2146 104.433 15.1379 104.351 15.0549 104.351C14.9718 104.351 14.8951 104.427 14.8951 104.509C14.8951 104.592 14.9718 104.668 15.0549 104.668C15.1379 104.668 15.2146 104.592 15.2146 104.509ZM14.2688 106.471C14.2688 106.547 14.3455 106.629 14.4286 106.629C14.5883 106.629 14.665 106.553 14.665 106.394C14.665 106.318 14.5883 106.236 14.4286 106.236C14.3519 106.236 14.2688 106.312 14.2688 106.471ZM13.7959 108.197C13.7192 108.197 13.6362 108.273 13.6362 108.356C13.6362 108.438 13.7129 108.514 13.7959 108.514C13.9557 108.514 14.0324 108.438 14.0324 108.356C14.0324 108.273 13.9557 108.197 13.7959 108.197ZM13.0035 110.234C13.0035 110.311 13.0802 110.393 13.24 110.393C13.3166 110.393 13.3997 110.317 13.3997 110.234C13.3997 110.076 13.323 110 13.24 110C13.0802 110 13.0035 110.076 13.0035 110.234ZM13.0035 104.116C13.0802 104.192 13.1633 104.275 13.24 104.275C13.3166 104.275 13.3997 104.198 13.3997 104.116C13.3997 104.033 13.323 103.881 13.24 103.881C13.1633 103.957 13.0035 104.04 13.0035 104.116ZM12.7671 106.001C12.7671 105.925 12.6904 105.842 12.6073 105.842C12.5242 105.842 12.4475 105.918 12.4475 106.001C12.4475 106.16 12.5242 106.236 12.6073 106.236C12.6904 106.236 12.7671 106.16 12.7671 106.001ZM11.8213 107.962C11.8213 108.038 11.898 108.121 11.981 108.121C12.1408 108.121 12.2175 108.045 12.2175 107.962C12.2175 107.804 12.0577 107.727 11.981 107.727C11.9044 107.727 11.8213 107.804 11.8213 107.962ZM11.1886 109.765C11.1886 109.923 11.2653 110 11.3484 110C11.5081 110 11.5848 109.923 11.5848 109.765C11.5848 109.689 11.5081 109.606 11.3484 109.606C11.2717 109.606 11.1886 109.682 11.1886 109.765ZM12.5306 112.196C12.5306 112.272 12.6073 112.354 12.6904 112.354C12.8501 112.354 12.9268 112.278 12.9268 112.196C12.9268 112.037 12.8501 111.961 12.6904 111.961C12.6137 111.961 12.5306 112.037 12.5306 112.196ZM10.6327 111.643C10.6327 111.802 10.7093 111.878 10.8691 111.878C10.9458 111.878 11.0289 111.802 11.0289 111.643C11.0289 111.567 10.9522 111.485 10.8691 111.485C10.7093 111.485 10.6327 111.561 10.6327 111.643ZM10 113.605C10 113.763 10.0767 113.839 10.2364 113.839C10.3131 113.839 10.3962 113.763 10.3962 113.605C10.3962 113.528 10.3195 113.446 10.1598 113.446C10.0831 113.446 10 113.522 10 113.605ZM11.8149 114.233C11.8149 114.309 11.9747 114.392 12.0513 114.392C12.128 114.392 12.2111 114.315 12.2111 114.233C12.2111 114.074 12.1344 113.998 12.0513 113.998C11.8916 113.998 11.8149 114.074 11.8149 114.233ZM26.6727 91.3968C26.7494 91.8665 27.0689 92.26 27.5418 92.26C28.0147 92.26 28.4109 91.8665 28.4109 91.3968C28.4109 90.9271 28.0147 90.5336 27.5418 90.5336C27.0689 90.5336 26.6727 90.9271 26.6727 91.3968ZM27.2287 89.2769C27.2287 89.7466 27.6249 90.1401 28.0978 90.1401C28.5707 90.1401 28.9669 89.7466 28.9669 89.2769C28.9669 88.8073 28.5707 88.4137 28.0978 88.4899C27.6249 88.4899 27.2287 88.8073 27.2287 89.2769ZM26.1231 93.2818C26.1231 93.7515 26.5193 94.0688 26.9922 94.0688C27.4651 94.0688 27.8613 93.6753 27.8613 93.2056C27.8613 92.736 27.4651 92.4186 26.9922 92.4186C26.5193 92.4186 26.1231 92.8121 26.1231 93.2818ZM26.4363 96.03C26.9091 96.03 27.2287 95.7127 27.2287 95.243C27.2287 94.7733 26.8325 94.456 26.4363 94.456C25.9634 94.456 25.5672 94.7733 25.5672 95.243C25.6438 95.7127 25.9634 96.03 26.4363 96.03ZM25.8036 97.8325C26.1998 97.8325 26.5129 97.5152 26.5129 97.128C26.5129 96.7409 26.1934 96.4235 25.8036 96.4997C25.4074 96.4997 25.0943 96.817 25.0943 97.2042C25.0943 97.5152 25.4074 97.8325 25.8036 97.8325ZM24.5383 99.0892C24.5383 99.4002 24.8578 99.7176 25.1709 99.7176C25.5672 99.7176 25.8036 99.4066 25.8036 99.0892C25.8036 98.6957 25.4905 98.4609 25.1709 98.4609C24.8514 98.4609 24.5383 98.6957 24.5383 99.0892ZM24.5383 100.346C24.2252 100.346 23.9056 100.581 23.9056 100.974C23.9056 101.285 24.2188 101.52 24.5383 101.52C24.9345 101.52 25.1709 101.285 25.1709 100.892C25.1709 100.581 24.9345 100.263 24.5383 100.346ZM24.0654 102.466C23.7523 102.466 23.5094 102.701 23.5094 103.018C23.5094 103.253 23.7459 103.488 24.0654 103.488C24.3018 103.488 24.5383 103.253 24.5383 103.018C24.5383 102.707 24.3018 102.466 24.0654 102.466ZM23.3561 104.351C23.0365 104.351 22.8001 104.668 22.8001 104.979C22.8001 105.214 23.0365 105.531 23.3561 105.531C23.6692 105.455 23.9056 105.214 23.9056 104.903C23.9056 104.668 23.6692 104.351 23.3561 104.351ZM23.2794 106.782C23.2794 106.547 23.0429 106.312 22.7234 106.312C22.487 106.312 22.2505 106.547 22.2505 106.864C22.2505 107.099 22.487 107.334 22.7234 107.334C23.0365 107.334 23.2794 107.099 23.2794 106.782ZM21.7009 108.743C21.7009 108.978 21.8607 109.213 22.1738 109.213C22.4103 109.136 22.57 108.978 22.57 108.743C22.57 108.508 22.4103 108.273 22.0971 108.273C21.8607 108.273 21.7009 108.508 21.7009 108.743ZM20.9916 110.704C20.9916 110.939 21.228 111.174 21.5476 111.174C21.8671 111.174 22.1035 110.939 22.1035 110.704C22.1035 110.387 21.8671 110.158 21.5476 110.158C21.228 110.158 20.9916 110.393 20.9916 110.704ZM20.5187 112.589C20.5187 112.824 20.6785 113.059 20.9916 112.983C21.228 112.983 21.3878 112.824 21.3878 112.589C21.3878 112.278 21.228 112.119 20.9916 112.119C20.6785 112.119 20.5187 112.354 20.5187 112.589ZM20.2056 114.633C20.2056 114.709 20.2822 114.868 20.442 114.791C20.5187 114.791 20.6018 114.715 20.6018 114.633C20.6018 114.474 20.5251 114.398 20.442 114.398C20.2822 114.398 20.2056 114.474 20.2056 114.633ZM19.6496 116.435C19.6496 116.511 19.7263 116.594 19.8093 116.594C19.8924 116.594 19.9691 116.518 19.9691 116.435C19.9691 116.353 19.8924 116.277 19.8093 116.277C19.7263 116.277 19.6496 116.353 19.6496 116.435ZM27.9444 93.834C27.9444 94.3862 28.4173 94.7733 28.8902 94.7733C29.3631 94.7733 29.836 94.3798 29.836 93.834C29.836 93.3643 29.3631 92.9708 28.8902 92.9708C28.3342 92.9708 27.9444 93.3643 27.9444 93.834ZM28.5771 92.0315C28.5771 92.5011 28.9733 92.8947 29.4462 92.8947C30.0021 92.8947 30.3919 92.5011 30.3919 91.9553C30.3919 91.4856 29.9957 91.0921 29.4462 91.0921C28.9733 91.0921 28.5004 91.4856 28.5771 92.0315ZM30.8712 84.1042C30.9479 84.6564 31.3441 85.0435 31.817 85.0435C32.373 85.0435 32.7628 84.65 32.7628 84.1042C32.7628 83.6345 32.3666 83.241 31.817 83.241C31.3441 83.241 30.8712 83.6345 30.8712 84.1042ZM27.9444 87.3221C27.9444 87.7156 28.3406 88.1091 28.7368 88.0266C29.133 88.0266 29.5292 87.7156 29.5292 87.3221C29.4526 86.9286 29.133 86.5351 28.7368 86.5351C28.3406 86.5351 27.9444 86.9286 27.9444 87.3221ZM27.7846 98.5434C28.1808 98.5434 28.5771 98.1499 28.5771 97.7564C28.5771 97.2867 28.1808 96.9694 27.7846 96.9694C27.3117 96.9694 26.9922 97.3629 26.9922 97.7564C26.9922 98.1499 27.3054 98.5434 27.7846 98.5434ZM27.152 99.0131C26.7558 99.0131 26.4426 99.3241 26.4426 99.7176C26.4426 100.111 26.8389 100.422 27.152 100.422C27.5482 100.346 27.8613 100.029 27.8613 99.7176C27.8613 99.3241 27.5418 99.0131 27.152 99.0131ZM26.4426 100.974C26.1295 100.974 25.81 101.285 25.81 101.603C25.81 101.996 26.1231 102.307 26.4426 102.307C26.8389 102.307 27.152 101.996 27.152 101.603C27.152 101.292 26.8389 100.974 26.4426 100.974ZM25.8867 103.012C25.4905 103.012 25.254 103.323 25.254 103.64C25.254 103.957 25.5735 104.268 25.8867 104.268C26.1998 104.268 26.5193 103.957 26.5193 103.64C26.5193 103.246 26.1998 103.012 25.8867 103.012ZM25.8867 105.442C25.8867 105.131 25.6502 104.89 25.3307 104.89C25.0112 104.89 24.7747 105.125 24.7747 105.442C24.7747 105.76 25.0112 105.995 25.3307 105.995C25.6502 105.995 25.8867 105.76 25.8867 105.442ZM24.2252 107.486C24.2252 107.721 24.4616 107.956 24.6981 107.956C25.0112 107.956 25.1709 107.721 25.1709 107.486C25.1709 107.169 24.9345 107.016 24.6981 107.016C24.4616 107.016 24.2252 107.175 24.2252 107.486ZM23.5158 109.371C23.5158 109.689 23.8289 110 24.1485 110C24.468 110 24.7811 109.682 24.7811 109.371C24.7811 109.06 24.468 108.743 24.1485 108.743C23.8289 108.743 23.5158 109.054 23.5158 109.371ZM22.8832 111.332C22.8832 111.643 23.1963 111.878 23.5158 111.878C23.8353 111.878 24.0718 111.643 24.0718 111.332C24.0718 111.021 23.8353 110.704 23.5158 110.704C23.1963 110.704 22.8832 111.015 22.8832 111.332ZM22.57 113.294C22.57 113.452 22.7298 113.528 22.8065 113.528C22.9662 113.528 23.0429 113.452 23.0429 113.294C23.0429 113.135 22.9662 113.059 22.8065 113.059C22.7298 113.059 22.57 113.135 22.57 113.294ZM22.0971 115.096C22.0971 115.172 22.1738 115.255 22.2569 115.255C22.34 115.255 22.4167 115.179 22.4167 115.096C22.4167 115.014 22.34 114.937 22.2569 114.937C22.1738 114.937 22.0971 115.014 22.0971 115.096ZM30.2386 97.2804C30.7115 97.2804 31.1077 96.8868 31.1077 96.4172C31.1077 95.9475 30.7115 95.554 30.2386 95.554C29.7657 95.6302 29.3695 95.9475 29.3695 96.4172C29.3695 96.8868 29.7657 97.2804 30.2386 97.2804ZM28.3406 96.652C28.8135 96.652 29.2097 96.2585 29.2097 95.7888C29.2097 95.3192 28.8135 95.0018 28.3406 95.0018C27.8677 95.0018 27.4715 95.3953 27.4715 95.865C27.4715 96.3347 27.8677 96.652 28.3406 96.652ZM29.6826 97.5914C29.2864 97.5914 28.8902 97.9087 28.8902 98.3784C28.8902 98.7719 29.2864 99.1654 29.6826 99.0829C30.1555 99.0829 30.475 98.7655 30.475 98.3784C30.475 97.9087 30.0788 97.5914 29.6826 97.5914ZM29.1266 99.5525C28.7304 99.5525 28.4173 99.8635 28.4173 100.257C28.4173 100.651 28.7304 100.962 29.1266 100.962C29.5228 100.962 29.836 100.651 29.836 100.257C29.836 99.8635 29.5228 99.5525 29.1266 99.5525ZM28.494 101.59C28.0978 101.59 27.7846 101.907 27.7846 102.294C27.7846 102.682 28.0978 102.999 28.494 102.923C28.8902 102.923 29.2033 102.612 29.2033 102.218C29.2033 101.907 28.8902 101.59 28.494 101.59ZM28.494 104.103C28.494 103.786 28.1808 103.475 27.8613 103.475C27.5418 103.475 27.2287 103.786 27.2287 104.103C27.2287 104.497 27.5418 104.732 27.8613 104.732C28.2575 104.732 28.494 104.497 28.494 104.103ZM26.7558 106.141C26.7558 106.452 26.9922 106.693 27.3117 106.693C27.708 106.693 27.9444 106.458 27.9444 106.141C27.9444 105.747 27.6313 105.512 27.3117 105.512C26.9922 105.512 26.7558 105.823 26.7558 106.141ZM25.9634 108.026C25.9634 108.419 26.2765 108.73 26.6727 108.73C27.1456 108.73 27.4651 108.413 27.4651 108.026C27.4651 107.556 27.0689 107.239 26.6727 107.239C26.2765 107.239 25.9634 107.632 25.9634 108.026ZM25.4074 109.911C25.4074 110.222 25.6438 110.457 25.9634 110.457C26.3596 110.457 26.596 110.222 26.596 109.911C26.596 109.6 26.2829 109.282 25.9634 109.282C25.6438 109.282 25.4074 109.593 25.4074 109.911ZM25.2476 111.872C25.2476 112.031 25.3243 112.107 25.4841 112.107C25.6438 112.107 25.7205 111.948 25.7205 111.872C25.7205 111.713 25.6438 111.637 25.4841 111.637C25.3243 111.637 25.2476 111.713 25.2476 111.872ZM31.7275 98.061C31.1716 98.1372 30.7818 98.5307 30.7818 99.0004C30.7818 99.47 31.2547 99.8635 31.7275 99.8635C32.2004 99.8635 32.5967 99.47 32.5967 99.0004C32.5967 98.4545 32.2004 98.061 31.7275 98.061ZM31.8873 100.809C31.8873 100.34 31.4911 100.022 31.0182 100.022C30.5453 100.022 30.1491 100.416 30.1491 100.885C30.1491 101.355 30.5453 101.672 31.0182 101.672C31.4911 101.672 31.8873 101.279 31.8873 100.809ZM30.4622 101.983C30.066 101.983 29.6698 102.377 29.6698 102.77C29.6698 103.24 30.066 103.634 30.5389 103.634C30.9351 103.634 31.3313 103.24 31.3313 102.77C31.3313 102.301 30.9351 101.983 30.4622 101.983ZM29.0372 104.732C29.0372 105.125 29.3567 105.436 29.7465 105.436C30.1363 105.436 30.4559 105.125 30.4559 104.732C30.4559 104.262 30.1427 103.945 29.7465 103.945C29.3503 103.945 29.0372 104.338 29.0372 104.732ZM28.4876 106.617C28.5643 107.086 28.8838 107.404 29.3567 107.404C29.7529 107.404 30.1491 107.01 30.1491 106.617C30.0724 106.147 29.7529 105.83 29.28 105.83C28.8838 105.83 28.4876 106.223 28.4876 106.617ZM28.0147 108.66C28.0147 109.054 28.3278 109.365 28.6474 109.365C29.0436 109.365 29.3567 109.054 29.3567 108.66C29.3567 108.267 29.0372 108.032 28.6474 108.032C28.2575 108.032 28.0147 108.343 28.0147 108.66ZM27.7782 110.622C27.7782 110.698 27.8549 110.78 28.0147 110.78C28.0914 110.78 28.1745 110.704 28.1745 110.622C28.1745 110.463 28.0978 110.387 28.0147 110.387C27.8549 110.387 27.7782 110.463 27.7782 110.622ZM33.1526 103.399C33.1526 102.847 32.7564 102.459 32.2835 102.536C31.8106 102.536 31.4144 102.929 31.4144 103.399C31.4144 103.868 31.8106 104.262 32.2835 104.262C32.8331 104.262 33.2293 103.868 33.1526 103.399ZM31.8873 101.514C31.8873 102.066 32.3602 102.453 32.8331 102.453C33.3891 102.453 33.862 101.983 33.862 101.514C33.862 100.968 33.3891 100.492 32.8331 100.492C32.2835 100.568 31.8873 100.962 31.8873 101.514ZM30.7818 105.436C30.7818 105.906 31.178 106.375 31.7275 106.375C32.2771 106.375 32.6733 105.906 32.6733 105.354C32.6733 104.884 32.2004 104.414 31.7275 104.414C31.1716 104.49 30.7818 104.884 30.7818 105.436ZM30.5453 107.397C30.5453 107.708 30.8648 107.949 31.178 107.949C31.4911 107.949 31.7339 107.715 31.7339 107.397C31.7339 107.08 31.4975 106.769 31.178 106.769C30.8585 106.769 30.5453 107.08 30.5453 107.397ZM33.1526 105.982C33.1526 106.293 33.3891 106.534 33.7086 106.534C33.945 106.534 34.1815 106.299 34.1815 105.982C34.1815 105.665 33.945 105.43 33.7086 105.43C33.3955 105.43 33.1526 105.665 33.1526 105.982ZM31.178 97.1915C31.2547 97.6612 31.6509 98.0547 32.1238 98.0547C32.6797 98.0547 33.0695 97.6612 33.0695 97.1153C33.0695 96.6457 32.6733 96.2522 32.1238 96.2522C31.6509 96.2522 31.178 96.6457 31.178 97.1915ZM29.836 94.5258C29.836 95.078 30.2322 95.4651 30.7818 95.4651C31.3313 95.4651 31.7275 95.0716 31.7275 94.5258C31.7275 93.98 31.2547 93.5865 30.7818 93.5865C30.2258 93.5865 29.7529 93.98 29.836 94.5258ZM35.6066 104.725C35.6066 105.119 35.9197 105.354 36.2392 105.354C36.6354 105.354 36.8719 105.036 36.8719 104.725C36.8719 104.414 36.5523 104.097 36.2392 104.097C35.9261 104.097 35.6066 104.408 35.6066 104.725ZM38.1372 103.31C38.1372 103.703 38.3736 103.938 38.7698 103.938C39.083 103.938 39.3258 103.703 39.3258 103.31C39.3258 102.999 39.0894 102.758 38.6931 102.758C38.38 102.758 38.1372 102.993 38.1372 103.31ZM40.508 102.136C40.508 102.453 40.7445 102.764 41.064 102.764C41.4602 102.764 41.6967 102.453 41.6967 102.136C41.6967 101.742 41.4602 101.507 41.064 101.507C40.7445 101.507 40.4314 101.825 40.508 102.136ZM43.4285 100.644C43.4285 100.955 43.6649 101.273 43.9844 101.273C44.3807 101.273 44.6171 100.962 44.6171 100.644C44.6171 100.327 44.3807 100.016 43.9844 100.016C43.6713 100.016 43.4285 100.333 43.4285 100.644ZM101.748 86.5985C101.038 85.9702 100.566 85.1832 100.329 84.7135C99.9329 83.6155 98.3545 81.1846 96.6929 79.6931C93.7725 76.8687 90.9224 75.9231 85.8675 74.9837C85.8675 74.9837 79.7071 73.8032 71.4059 74.1205C70.8499 74.1205 70.4601 74.514 70.377 74.9837C70.377 74.9076 70.3003 74.825 70.3003 74.825H70.1406C70.2173 74.7489 70.3003 74.5902 70.3003 74.4315C70.3003 73.9619 69.9041 73.5684 69.4312 73.5684C68.9584 73.5684 68.5621 73.9619 68.5621 74.4315V74.5077C68.4855 74.349 68.4024 74.2729 68.2426 74.2729C68.0829 74.2729 67.9295 74.4315 67.9295 74.6664V74.7425C67.7697 74.5077 67.4566 74.349 67.1371 74.349C66.6642 74.349 66.268 74.5839 66.1913 75.0535C66.1913 74.8949 66.0315 74.8187 65.9548 74.8187H65.7951V74.5839C65.7951 74.1904 65.4819 73.7968 65.0857 73.7968C64.6895 73.7968 64.3764 74.1904 64.3764 74.5839C64.2997 74.5077 64.2166 74.4252 64.0633 74.4252C63.9866 74.4252 63.8268 74.5014 63.8268 74.5839V74.5077C63.8268 73.9555 63.3539 73.5684 62.881 73.5684C62.3251 73.5684 61.9352 74.038 61.9352 74.5077C61.9352 74.6664 61.9352 74.825 62.0119 74.9774C62.0119 74.9012 61.9352 74.9012 61.8522 74.9012C61.6924 74.9012 61.539 75.0599 61.539 75.2186C61.3793 74.7489 60.9831 74.514 60.5102 74.514C60.0373 74.514 59.7178 74.7489 59.5644 75.1424C59.4046 74.6727 59.0148 74.3554 58.5355 74.4379C57.9029 74.4379 57.43 74.9076 57.43 75.4597C57.43 75.5359 57.5067 75.6184 57.5067 75.6946C57.43 75.6184 57.3469 75.5359 57.1935 75.5359C57.0402 75.5359 56.8804 75.6946 56.8804 75.8469C56.8037 75.6121 56.6439 75.4534 56.4842 75.3772C56.8804 75.3011 57.1168 74.9837 57.1168 74.5902C57.1168 74.1967 56.7973 73.8857 56.3244 73.8857C55.9282 73.8857 55.6151 74.203 55.6151 74.5902C55.6151 74.825 55.6918 74.9837 55.8515 75.1424C55.3786 75.1424 54.9824 75.4534 54.8227 75.8469V75.7707C54.8227 75.2186 54.4265 74.8314 53.8769 74.8314C53.4807 74.8314 53.0845 75.1424 53.0078 75.5359L52.9311 75.4597C52.9311 75.4597 52.9311 75.5359 52.8544 75.5359L52.9311 75.4597C52.8544 74.9076 52.4582 74.5204 51.9022 74.5204C51.3463 74.5204 50.8734 74.9901 50.9564 75.4597V75.6946C50.7967 75.6946 50.6369 75.7707 50.5602 75.8532C50.4005 75.6946 50.3238 75.5422 50.164 75.4597C50.4835 75.3836 50.72 75.0662 50.72 74.7552C50.6433 74.2856 50.3238 73.9682 49.9276 73.9682C49.4547 73.9682 49.1352 74.3617 49.1352 74.7552C49.1352 74.9139 49.2118 75.1487 49.3716 75.2249C49.0585 75.2249 48.8156 75.3836 48.6623 75.4597C48.5856 75.2249 48.4258 75.0662 48.2661 74.9076C48.5856 74.8314 48.822 74.514 48.822 74.1205C48.822 73.727 48.5089 73.3335 48.0296 73.3335C47.5567 73.4097 47.2372 73.727 47.2372 74.1967C47.2372 74.3554 47.3139 74.5077 47.397 74.6664C47.1605 74.6664 46.9241 74.7425 46.7643 74.825C46.6876 74.5902 46.5278 74.4315 46.3681 74.2729C46.6876 74.1142 46.841 73.8794 46.841 73.4858C46.841 73.0923 46.5278 72.6988 46.0486 72.6988C45.6524 72.775 45.2562 73.0923 45.2562 73.562C45.2562 73.7207 45.3328 73.7968 45.4159 73.9555C45.1795 73.9555 45.0197 74.0317 44.7833 74.1142C44.7066 73.9555 44.6235 73.7207 44.387 73.6445C44.7002 73.5684 44.943 73.251 44.943 72.8575C44.943 72.464 44.6299 72.153 44.2337 72.153C43.7608 72.153 43.4413 72.4703 43.4413 72.8575C43.4413 73.0923 43.5179 73.251 43.601 73.3272C43.3646 73.3272 43.045 73.4033 42.8917 73.562C42.815 73.3272 42.6552 73.1685 42.4188 73.0098C42.7319 72.9337 42.9748 72.6163 42.9748 72.3053C42.9748 71.8357 42.5785 71.5183 42.1823 71.5183C41.7861 71.5183 41.3899 71.9118 41.3899 72.3053C41.3899 72.464 41.4666 72.6163 41.6264 72.775C41.3132 72.775 41.0768 72.8512 40.917 73.0098C40.8403 72.6925 40.6806 72.5402 40.5208 72.3053C40.7573 72.2292 40.917 71.988 40.917 71.677C40.917 71.2073 40.5208 70.89 40.1246 70.89C39.7284 70.89 39.3322 71.2835 39.3322 71.677C39.3322 71.8357 39.4089 71.9118 39.492 72.0705C39.1788 72.0705 39.0191 72.1467 38.7826 72.3053C38.7059 72.0705 38.5462 71.8357 38.3864 71.7531C38.6229 71.677 38.8593 71.3596 38.8593 71.0486C38.8593 70.6551 38.5462 70.4203 38.15 70.4203C37.8368 70.4203 37.5173 70.7376 37.5173 71.0486C37.5173 71.2073 37.594 71.3596 37.6771 71.5183L37.6004 71.4422C37.2042 71.4422 36.891 71.6008 36.6546 71.8357C36.4948 71.5247 36.1817 71.2835 35.7088 71.2835C35.3957 71.2835 35.1528 71.4422 34.9995 71.6008C34.8397 71.1312 34.4435 70.8138 33.8939 70.8138C33.3443 70.8138 32.8651 71.2835 32.8651 71.8357C32.8651 72.0705 32.9417 72.3053 33.1015 72.464H33.0248C32.7884 72.464 32.5519 72.6227 32.3922 72.775C32.3155 72.5402 32.1557 72.3053 31.996 72.1467C32.3155 71.988 32.5519 71.677 32.5519 71.2835C32.5519 70.8138 32.1557 70.3441 31.6828 70.4203C31.1268 70.4203 30.737 70.8138 30.737 71.2835C30.737 71.5183 30.8137 71.677 30.9735 71.8357C30.6603 71.9118 30.3408 72.0705 30.1811 72.3053C30.0213 71.9118 29.6251 71.6008 29.2353 71.6008C28.6793 71.6008 28.2064 72.0705 28.2064 72.6227C28.2064 73.1749 28.6793 73.6445 29.2353 73.6445C29.4717 73.6445 29.7082 73.5684 29.8679 73.4097C30.0277 73.9619 30.5006 74.4315 31.1332 74.4315C31.4464 74.4315 31.6892 74.3554 31.8426 74.1967V74.2729C31.8426 74.5077 31.9193 74.7425 32.079 74.9012C31.7595 75.0599 31.4464 75.4534 31.5231 75.8405C31.5231 76.3927 31.9193 76.7799 32.4688 76.7799C32.7884 76.7799 33.0248 76.7037 33.1782 76.5451C33.3379 77.0972 33.8875 77.5669 34.5202 77.5669C34.6799 77.5669 34.8333 77.4907 34.9931 77.4907C34.9931 77.5669 35.0698 77.6494 35.0698 77.7256C34.91 77.8842 34.6736 78.1191 34.5969 78.3539C34.5202 77.9604 34.2007 77.6494 33.8044 77.6494C33.4082 77.6494 33.012 78.0429 33.012 78.4364C33.012 78.9061 33.4082 79.2234 33.8044 79.2234C34.1176 79.2234 34.3604 79.0648 34.4371 78.9061V79.0648C34.4371 79.2996 34.5138 79.6169 34.6736 79.8518C34.2773 80.0105 34.0409 80.404 34.0409 80.8736C34.0409 81.1085 34.1176 81.4195 34.2773 81.5781C34.2773 81.6543 34.2007 81.7368 34.2007 81.813C33.7278 81.8891 33.2549 82.3652 33.2549 82.911C33.2549 83.222 33.4913 83.5393 33.7278 83.698C33.1718 83.7742 32.6989 84.3263 32.6989 84.8785C32.6989 85.1895 32.8587 85.5069 33.012 85.6592C32.9353 85.6592 32.5391 85.7354 32.2196 86.0527C32.2196 85.583 31.8234 85.1895 31.3505 85.1895C30.8009 85.1895 30.4047 85.6592 30.4047 86.1289C30.4047 86.681 30.8776 87.0682 31.3505 87.0682C31.587 87.0682 31.8234 86.9095 31.9832 86.7509C31.9832 87.2205 32.1429 87.5379 32.3794 87.6902C32.1429 87.7664 31.9065 87.925 31.7467 88.1599C31.7467 87.5315 31.1908 87.0619 30.6412 87.0619C30.0085 87.0619 29.5356 87.5315 29.6123 88.1599C29.6123 88.4772 29.689 88.712 29.9254 88.8644C29.3695 88.9405 28.9797 89.4166 28.9797 89.9624C28.9797 90.5907 29.4525 91.0604 30.0852 91.0604C30.3983 90.9842 30.6348 90.9017 30.8776 90.5907C30.8776 90.6669 30.8009 91.3714 31.3505 91.6126C30.8776 91.6887 30.4814 92.0822 30.4814 92.5519C30.4814 93.1041 30.8776 93.4913 31.4272 93.4913C31.7403 93.4913 32.0599 93.4151 32.2196 93.1803V93.2564C32.2196 93.6499 32.4561 93.9609 32.7756 94.1958C32.2196 94.1958 31.7467 94.6654 31.7467 95.2176C31.7467 95.7698 32.2196 96.157 32.7756 96.157C33.012 96.157 33.2485 96.0808 33.4849 95.9221C33.4849 96.2331 33.6447 96.5505 33.8811 96.7091C33.4849 96.8678 33.0887 97.2613 33.1718 97.731C33.1718 98.042 33.3316 98.3593 33.568 98.5942C33.0951 98.5942 32.6222 98.9877 32.6222 99.5335C32.6989 100.086 33.0951 100.473 33.6511 100.473C33.9706 100.473 34.207 100.397 34.3604 100.155C34.2007 100.86 34.9164 101.177 34.8333 101.177C34.2007 101.254 33.8045 101.647 33.8875 102.199C33.8875 102.593 34.0473 102.828 34.2837 103.062C33.7278 103.062 33.2549 103.532 33.2549 104.084C33.2549 104.636 33.7278 105.024 34.2837 105.024C34.8397 105.024 35.3126 104.554 35.3126 104.002C35.3126 103.691 35.1528 103.45 34.9164 103.215C35.466 103.215 35.9453 102.745 35.8622 102.193C35.8622 101.882 35.7024 101.488 35.3893 101.33C35.7024 101.406 36.1817 101.171 36.3351 100.936C36.3351 101.247 36.5715 101.641 36.891 101.799C36.3351 101.799 35.8622 102.269 35.8622 102.821C35.8622 103.373 36.3351 103.843 36.891 103.761C37.447 103.761 37.9199 103.367 37.9199 102.821C37.9199 102.428 37.447 101.958 37.447 101.958C37.8432 101.958 38.1564 101.799 38.3161 101.565C38.3161 101.565 38.4759 102.586 39.4217 102.586C39.9712 102.586 40.4505 102.117 40.4505 101.565C40.4505 101.33 40.2908 101.095 40.1374 100.86C40.1374 100.86 40.6103 100.86 40.8467 100.701C41.0065 101.171 41.4794 101.488 42.029 101.488C42.7383 101.488 43.2943 100.943 43.2943 100.232C43.2943 99.6795 42.9811 99.2098 42.5849 99.0575C42.8981 99.0575 43.1409 98.8988 43.2943 98.7401V98.8163C43.371 99.4446 43.8502 99.9143 44.4765 99.9143C45.1028 99.9143 45.6587 99.4446 45.6587 98.7338C45.6587 98.4228 45.499 98.1055 45.1859 97.9468C45.5821 97.8706 45.8185 97.7119 46.055 97.4771V97.6358C46.055 98.2641 46.5278 98.7338 47.1605 98.7338C47.8698 98.7338 48.3427 98.1816 48.3427 97.5596C48.3427 97.1661 48.1063 96.8551 47.7868 96.6203C48.0999 96.6203 48.4194 96.4616 48.6559 96.2268C48.7326 96.779 49.2118 97.2486 49.7614 97.2486C50.1576 97.2486 50.4708 97.0138 50.7072 96.779C50.7839 97.2486 51.1801 97.566 51.653 97.566C52.2026 97.566 52.5988 97.0963 52.5988 96.5441C52.5988 96.2331 52.439 95.9158 52.2026 95.7571C52.8352 95.7571 53.3848 95.2049 53.3848 94.5829C53.3848 94.3481 53.3081 94.1894 53.225 94.0307C53.3848 93.9546 53.4615 93.9546 53.6213 93.7959C53.6213 94.1894 53.8577 94.4243 54.0942 94.5829C53.781 94.7416 53.5382 95.0526 53.5382 95.3699C53.5382 95.8396 53.9344 96.2331 54.4073 96.2331C54.8035 96.2331 55.1997 95.8396 55.1997 95.3699C55.1997 95.1351 55.123 94.9764 54.9633 94.8178C55.2764 94.8178 55.5192 94.6591 55.7557 94.4243C55.9154 94.7416 56.3116 94.8939 56.7015 94.8939C57.3341 94.8939 57.8837 94.3417 57.8837 93.7134V93.5547H58.1201C58.1968 93.7134 58.2799 93.8657 58.4333 93.9482C58.1968 94.1069 58.0371 94.3417 58.0371 94.5766C58.1137 95.0462 58.4333 95.3636 58.8295 95.3636C59.3024 95.3636 59.6219 94.9701 59.6219 94.5766C59.6219 94.3417 59.5452 94.1831 59.3854 94.0244C59.4621 94.1006 59.5452 94.1006 59.5452 94.1006C59.705 94.1006 59.7817 94.0244 59.8647 94.0244C59.9414 94.1831 60.0245 94.3417 60.2609 94.4179C60.0245 94.6527 59.8647 94.8876 59.8647 95.2049C59.8647 95.7571 60.3376 96.2268 60.8936 96.1443H61.2067C61.2067 96.3029 61.2834 96.3791 61.3665 96.4553C61.2067 96.5314 60.9703 96.6139 60.8936 96.7726C60.8169 96.4553 60.4974 96.3029 60.1843 96.3029C59.7114 96.3029 59.3152 96.6964 59.3152 97.1661C59.3152 97.5596 59.7114 97.9531 60.1843 97.9531C60.2609 97.9531 60.344 97.9531 60.4974 97.877C60.4974 98.0356 60.5741 98.188 60.6572 98.2705C60.4974 98.3466 60.344 98.4291 60.344 98.664C60.1076 98.4291 59.8711 98.2705 59.6347 98.2705C59.0787 98.2705 58.6889 98.664 58.6889 99.2098C58.7656 99.6795 59.1618 100.073 59.6347 100.073C59.7114 100.073 59.8711 100.073 59.9478 99.9968V100.155C59.9478 100.314 60.0245 100.549 60.1843 100.625C60.0245 100.784 59.9478 100.936 59.8711 101.095C59.7944 100.625 59.3982 100.232 58.9253 100.232C58.4524 100.232 58.0562 100.625 58.0562 101.095C58.0562 101.565 58.4524 101.958 58.9253 101.958C59.3215 101.958 59.558 101.799 59.7178 101.488V101.565C59.7178 102.193 60.2737 102.739 60.9 102.739C61.5262 102.739 62.0055 102.193 62.0055 101.565C62.0055 101.33 61.9289 101.171 61.8458 101.019C62.0822 100.943 62.242 100.86 62.4017 100.784C62.5615 101.177 62.9577 101.412 63.4306 101.412C64.0633 101.412 64.6128 100.86 64.5362 100.238C64.5362 100.238 64.5362 100.162 64.6128 99.927C64.8493 99.8508 65.0091 99.6922 65.1688 99.5335C65.2455 99.8445 65.565 100.003 65.9612 100.003C66.4341 100.003 66.8303 99.6097 66.8303 99.14C66.7536 98.6703 66.4341 98.2768 65.8845 98.353C65.8845 98.1943 65.8079 98.1181 65.7248 98.0356H65.9612C66.1977 98.1118 66.4341 98.2705 66.6706 98.2705C67.3032 98.1943 67.8528 97.7183 67.7761 97.0963C67.7761 96.9376 67.7761 96.7853 67.6994 96.6266C67.9359 96.5505 68.0956 96.3156 68.249 96.157C68.4088 96.468 68.7219 96.7028 69.1181 96.7028C69.6741 96.7028 70.0639 96.3093 70.0639 95.7634C70.0639 95.2938 69.591 94.9003 69.1181 94.9003C68.9583 94.9003 68.7219 94.9003 68.6452 95.0589C68.6452 94.8241 68.5685 94.5893 68.4855 94.4306C68.6452 94.3544 68.7986 94.3544 68.9583 94.2719C69.1181 94.5893 69.4312 94.8241 69.9041 94.8241C70.4601 94.8241 70.933 94.3544 70.933 93.8023C70.933 93.6436 70.933 93.5674 70.8563 93.4087C71.0928 93.2501 71.3292 93.0152 71.489 92.7042C71.489 93.1739 71.9619 93.5674 72.4348 93.5674C72.9907 93.5674 73.4636 93.0977 73.4636 92.5456C73.4636 92.3869 73.3869 92.2282 73.3039 92.1521C73.5403 91.9934 73.7001 91.9172 73.8598 91.7586C74.0963 92.0759 74.4925 92.2282 74.8887 92.2282C75.5214 92.2282 76.0773 91.6824 76.0773 91.0541H76.3138C76.3138 91.1302 76.3905 91.1302 76.3905 91.1302C76.2307 91.2889 76.154 91.5237 76.154 91.7586C76.154 92.2282 76.5502 92.5456 77.0231 92.5456C77.496 92.5456 77.8155 92.1521 77.8155 91.7586C77.8155 91.5237 77.7388 91.365 77.6558 91.2127C77.7069 91.2127 77.7601 91.1873 77.8155 91.1366C86.5066 90.5844 87.6121 90.5082 87.6121 90.5082C87.6121 90.5082 88.5579 90.4321 94.9611 90.5844C99.9393 90.7431 100.885 90.8954 100.885 90.8954C101.518 90.8954 105.544 91.4476 105.787 89.8735C105.946 88.4582 104.758 88.2233 104.208 87.9885C103.812 87.8298 102.393 87.0492 101.761 86.5795L101.748 86.5985ZM30.7882 89.1881C31.0246 89.1881 31.3377 89.0294 31.4975 88.7946C31.4975 89.1056 31.5742 89.4229 31.8106 89.6577C31.4975 89.6577 31.0182 89.9687 31.0182 89.9687C31.0182 89.7339 30.9415 89.4166 30.7818 89.1817L30.7882 89.1881ZM34.3412 93.1104C34.3412 92.8756 34.2646 92.6408 34.1048 92.4821C34.2646 92.4821 34.5777 92.3234 34.7375 92.1711C34.7375 92.3298 34.8141 92.6408 34.9739 92.7994C34.7375 92.7994 34.501 92.9581 34.3412 93.1168V93.1104ZM36.0795 80.1628C36.1561 80.1628 36.3159 80.1628 36.3926 80.0041C36.3926 80.1628 36.4693 80.2389 36.5523 80.3151C36.3926 80.3151 36.3159 80.3913 36.2392 80.4738C36.2392 80.3976 36.1625 80.2389 36.0795 80.1628ZM36.3926 73.5684C36.3159 73.5684 36.1561 73.6445 36.0795 73.727C36.0795 73.6509 36.0028 73.4922 35.843 73.4097C36.0028 73.4097 36.1625 73.3335 36.2392 73.251C36.2392 73.3272 36.3159 73.4859 36.399 73.562L36.3926 73.5684ZM35.6832 82.3588C35.6832 82.2001 35.6066 82.0415 35.4468 81.9653C35.6066 81.9653 35.7663 81.8891 35.843 81.8066C35.843 81.9653 35.9197 82.0415 36.0795 82.2001C35.9197 82.2001 35.7663 82.2001 35.6832 82.3588ZM35.843 76.0817C35.6832 76.0817 35.6066 76.1579 35.4468 76.2404C35.4468 76.0817 35.3701 75.9231 35.287 75.8469C35.4468 75.8469 35.5235 75.7707 35.6832 75.6882C35.6832 75.8469 35.7599 76.0056 35.843 76.0817ZM33.159 75.1424C33.3955 75.1424 33.6319 75.0662 33.7917 74.9076C33.7917 75.1424 33.9514 75.3011 34.1048 75.4597C33.8684 75.4597 33.6319 75.5359 33.4721 75.6946C33.4721 75.5359 33.3955 75.3011 33.159 75.1487V75.1424ZM34.0281 72.8639C34.2646 72.8639 34.5841 72.7052 34.7375 72.4703C34.7375 72.7813 34.8972 73.0225 35.1337 73.2574C34.8205 73.2574 34.5841 73.3335 34.4243 73.5684C34.3476 73.2574 34.1879 73.0162 34.0281 72.8639ZM35.4532 84.0852C35.2934 84.0852 35.2167 84.1613 35.057 84.32C35.0587 84.239 35.0375 84.1591 34.9957 84.0895C34.9539 84.0199 34.8932 83.9634 34.8205 83.9265C35.057 83.8503 35.1337 83.8503 35.2934 83.6917C35.2934 83.8503 35.3701 83.9265 35.4532 84.0852ZM35.1401 86.205C34.8269 86.2812 34.5905 86.3637 34.4307 86.5985C34.354 86.3637 34.1943 86.0464 34.0345 85.894C34.3476 85.8179 34.5074 85.7354 34.7438 85.583C34.7438 85.8179 34.9803 86.0527 35.1401 86.2114V86.205ZM34.4307 88.2424C34.271 88.2424 33.9578 88.4772 33.7981 88.6359C33.7214 88.3249 33.5616 88.0837 33.4019 87.9314C33.715 87.8552 33.8747 87.7727 34.1112 87.5379C34.1112 87.7727 34.271 88.0901 34.4243 88.2424H34.4307ZM32.0599 91.8538C32.5328 91.8538 32.7692 91.6189 32.8523 91.4603C32.8523 91.7712 32.929 92.0124 33.0887 92.1648C32.8523 92.2409 32.6158 92.3996 32.4561 92.6344C32.3794 92.3234 32.2963 92.0061 32.0599 91.8474V91.8538ZM33.6383 89.4991C33.6383 89.8101 33.715 90.1274 33.9578 90.2861C33.7981 90.3622 33.3252 90.5209 33.1654 90.6034C33.1654 90.3686 33.0056 90.0512 32.8459 89.8989C33.1654 89.8989 33.4785 89.6641 33.6383 89.5054V89.4991ZM33.3252 94.3671C33.6383 94.3671 33.8811 94.2085 34.0345 94.0498C34.1112 94.2846 34.271 94.5195 34.4307 94.6781C34.1943 94.7543 33.9578 94.8368 33.7214 95.0716C33.7214 94.7543 33.5616 94.5195 33.3252 94.3671ZM34.1943 98.7592C34.5074 98.7592 34.7502 98.6005 34.9867 98.3657C34.9867 98.6767 35.1464 98.994 35.3829 99.1527C35.0698 99.1527 34.7502 99.3114 34.5905 99.5462C34.5905 99.5462 34.5138 98.9179 34.1943 98.7592ZM38.1436 100.175C38.4567 100.175 38.7762 100.016 38.936 99.781C38.936 100.092 39.0957 100.409 39.3322 100.644C39.0191 100.644 38.6995 100.803 38.5398 101.038C38.5398 100.962 38.5398 100.409 38.1436 100.175ZM34.8269 96.9567C35.1401 96.8805 35.3829 96.7218 35.5363 96.5632C35.5363 96.798 35.696 97.0328 35.8558 97.1915C35.6193 97.2677 35.2998 97.4263 35.1464 97.6612C35.1464 97.3502 34.9867 97.109 34.8333 96.9567H34.8269ZM36.0922 99.3875C36.4054 99.3875 36.7249 99.2289 36.9613 98.994C36.9613 99.305 37.038 99.5462 37.2809 99.781C36.9613 99.8572 36.7249 100.016 36.5715 100.175C36.5715 99.8635 36.4118 99.5462 36.0986 99.3875H36.0922ZM36.9613 97.585C37.1978 97.585 37.4342 97.4263 37.5173 97.274C37.594 97.5088 37.6771 97.7437 37.7538 97.9024C37.594 97.9785 37.3575 98.061 37.1978 98.2133C37.1978 97.9785 37.1211 97.7437 36.9613 97.585ZM41.6264 96.9567C41.7861 96.9567 41.9395 96.8805 42.0226 96.7218C42.0226 96.8805 42.0993 97.0328 42.1823 97.1153C42.1057 97.1153 41.9459 97.1915 41.8628 97.274C41.7861 97.1978 41.7861 97.0392 41.6264 96.963V96.9567ZM44.2337 95.6238C44.3104 95.6238 44.4701 95.5477 44.5468 95.4651C44.5468 95.6238 44.6235 95.7 44.7066 95.8586C44.6299 95.8586 44.4701 95.8586 44.3934 96.0173C44.3934 95.8586 44.3168 95.7 44.2337 95.6238ZM46.2083 96.176C46.3681 96.176 46.4448 96.0998 46.5215 96.0173C46.5981 96.176 46.5981 96.3347 46.7579 96.4108C46.5981 96.4108 46.4448 96.487 46.3617 96.5695C46.3617 96.4108 46.285 96.2585 46.2019 96.176H46.2083ZM46.841 94.291C46.9177 94.291 47.0774 94.2148 47.1541 94.1323C47.1541 94.2085 47.2308 94.3671 47.3906 94.4433C47.2308 94.4433 47.0774 94.5195 46.9944 94.602C46.9944 94.5258 46.9177 94.3671 46.8346 94.2846L46.841 94.291ZM48.7389 94.8431C48.8987 94.8431 48.9754 94.8431 49.1352 94.6845C49.1352 94.8431 49.2118 94.9955 49.2949 95.078C49.1352 95.078 48.9818 95.1541 48.8987 95.2367C48.8987 95.1605 48.822 95.0018 48.7389 94.8431ZM49.3716 93.1168C49.5314 93.1168 49.608 93.0406 49.7678 92.882C49.7678 93.0406 49.7678 93.193 49.9276 93.2755C49.7678 93.2755 49.6144 93.3516 49.5314 93.4341C49.5314 93.2755 49.5314 93.1993 49.3716 93.1231V93.1168ZM50.7136 95.4715C50.7136 95.4207 50.688 95.3678 50.6369 95.3128C50.7967 95.3128 50.9564 95.2367 51.1098 95.1541C51.1865 95.3128 51.4229 95.5477 51.5827 95.6238C51.3463 95.6238 51.1098 95.7825 50.95 95.9348C50.8734 95.7761 50.8734 95.6238 50.7136 95.4651V95.4715ZM51.1865 93.7451C51.3463 93.669 51.4996 93.669 51.5827 93.5103C51.5827 93.669 51.6594 93.8276 51.8191 93.9038C51.6594 93.9038 51.506 93.98 51.4229 94.0625C51.4229 93.9038 51.3463 93.8276 51.1865 93.7451ZM55.8515 92.9581C56.0113 92.9581 56.088 92.882 56.2477 92.7994C56.2477 92.9581 56.3244 93.0343 56.4075 93.1168C56.2477 93.1168 56.171 93.193 56.0113 93.3516C56.0113 93.193 55.9346 93.0343 55.8515 92.9581ZM59.2513 76.3229C59.2513 76.2467 59.3279 76.0881 59.4877 76.0881C59.5644 76.0881 59.7241 76.2467 59.7241 76.3229C59.7241 76.4816 59.6475 76.5577 59.4877 76.5577C59.411 76.5577 59.2513 76.4816 59.2513 76.3229ZM62.651 99.2415C62.8107 99.2415 62.8874 99.2415 63.0472 99.0829C63.0472 99.2415 63.1239 99.3939 63.2069 99.4764C63.0472 99.4764 62.9705 99.5525 62.8107 99.6351C62.8107 99.4764 62.734 99.4002 62.651 99.2415ZM63.7565 75.3836C63.7565 75.2249 63.9163 75.1487 64.0697 75.1487C64.223 75.1487 64.3061 75.2249 64.3061 75.3836C64.3061 75.5422 64.2294 75.6946 64.0697 75.6946C63.9099 75.6946 63.7565 75.5359 63.7565 75.3836ZM65.2583 76.1706C65.2583 75.9357 65.418 75.7009 65.6545 75.7009C65.8909 75.7009 66.1274 75.9357 66.1274 76.1706C66.1274 76.4054 65.9676 76.6403 65.6545 76.6403C65.418 76.6403 65.2583 76.4054 65.2583 76.1706ZM71.8149 75.9358C71.8149 75.6184 72.0513 75.4661 72.3709 75.4661C72.6073 75.3899 72.8437 75.6248 72.8437 75.9358C72.8437 76.1706 72.6073 76.4054 72.3709 76.4054C72.0577 76.4054 71.8149 76.1706 71.8149 75.9358ZM73.3166 78.7601C73.3166 78.5253 73.4764 78.3666 73.7128 78.3666C73.9493 78.3666 74.1091 78.5253 74.1091 78.7601C74.1091 78.995 73.9493 79.1536 73.7128 79.1536C73.4764 79.1536 73.3166 78.995 73.3166 78.7601ZM73.7895 76.7989C73.7895 76.4816 74.026 76.1706 74.4222 76.1706C74.7353 76.1706 75.0548 76.4816 75.0548 76.7989C75.0548 77.1163 74.7353 77.4273 74.4222 77.4273C74.1091 77.4273 73.7895 77.1924 73.7895 76.7989ZM75.0548 79.3885C75.0548 79.2298 75.2146 79.0775 75.4511 79.0775C75.6108 79.0013 75.7706 79.2361 75.7706 79.3885C75.8473 79.6233 75.6108 79.782 75.4511 79.782C75.2146 79.782 75.0548 79.6233 75.0548 79.3885ZM75.6108 77.4273C75.6108 77.1163 75.8473 76.8751 76.1668 76.8751C76.4863 76.8751 76.7228 77.1099 76.7228 77.4273C76.7228 77.7446 76.4863 77.9795 76.1668 77.9795C75.8473 77.9795 75.6108 77.7446 75.6108 77.4273Z" fill="#0032C6"/>
<path d="M50.3621 101.844H55.8962V130.176H50.3621V101.844ZM62.0566 112.126V108.203H65.6928V105.144C65.6928 102.002 67.1945 99.1019 72.096 99.1019C73.5211 99.1019 74.8631 99.4129 75.8919 99.6478L75.6555 103.494C75.0228 103.335 74.3135 103.1 73.6041 103.1C72.0257 103.1 71.0735 104.198 71.0735 105.849V108.203H75.1059V112.126H71.0735V130.176H65.6992V112.126H62.063H62.0566ZM80.787 108.203H85.6054C85.6821 109.536 85.7652 110.952 85.7652 112.208H85.8419C86.4745 110.564 88.2127 107.892 91.4527 107.892C91.8489 107.892 92.0854 107.969 92.3985 108.051V112.995C91.9256 112.837 91.4527 112.76 90.8967 112.76C88.6856 112.76 86.3148 114.093 86.3148 118.174V130.183H80.9404V111.897C80.9404 110.488 80.9404 109.232 80.7806 108.21L80.787 108.203ZM104.732 130.494C97.6195 130.494 94.5393 125.473 94.5393 119.507C94.5393 112.995 98.0157 107.892 103.627 107.892C108.368 107.892 112.477 110.641 112.477 119.583V120.605H99.6772C99.6772 124.369 101.179 126.647 105.288 126.647C108.605 126.647 110.106 125.626 111.135 124.921L111.372 129.078C110.266 129.548 107.972 130.494 104.732 130.494ZM103.627 111.504C100.859 111.504 99.6772 114.411 99.6772 117.311H107.339C107.339 113.465 106.074 111.504 103.627 111.504ZM118.561 108.21H123.935C123.935 109.384 124.095 110.564 124.095 111.662H124.172C124.964 110.012 126.696 107.899 129.783 107.899C133.496 107.899 134.684 110.177 135.317 111.434C136.422 109.866 138.001 107.899 141.241 107.899C146.059 107.899 147.561 111.275 147.561 116.607V130.183H142.263V116.372C142.263 113.624 141.394 112.215 139.419 112.215C137.049 112.215 135.866 114.493 135.866 116.924V130.189H130.492V116.378C130.492 113.63 129.623 112.221 127.648 112.221C125.354 112.221 124.089 114.499 124.089 116.93V130.195H118.797V111.834C118.797 110.266 118.638 109.086 118.561 108.222V108.21ZM163.837 130.5C156.725 130.5 153.645 125.48 153.645 119.514C153.645 113.002 157.121 107.899 162.732 107.899C167.55 107.899 171.583 110.647 171.583 119.59V120.612H158.783C158.783 124.375 160.284 126.654 164.393 126.654C167.716 126.654 169.212 125.632 170.241 124.927L170.477 129.085C169.372 129.554 167.077 130.5 163.837 130.5ZM162.732 111.51C159.965 111.51 158.783 114.417 158.783 117.318H166.445C166.445 113.471 165.179 111.51 162.732 111.51ZM178.459 108.216H183.2C183.277 109.549 183.36 110.964 183.36 112.221H183.52C184.153 110.577 185.814 107.905 189.131 107.905C189.444 107.905 189.687 107.981 190 108.064V113.008C189.527 112.849 189.054 112.773 188.498 112.773C186.287 112.773 183.916 114.106 183.916 118.187V130.195H178.619V111.91C178.619 110.501 178.542 109.244 178.459 108.222V108.216Z" fill="#0032C6"/>
</g>
<defs>
<clipPath id="clip0_33_46">
<rect width="180" height="61" fill="white" transform="translate(10 69.5)"/>
</clipPath>
</defs>
</svg>
